<svg width="271" height="472" viewBox="0 0 271 472" fill="none" xmlns="http://www.w3.org/2000/svg"><path class="hero-line-base" d="M7 7L146 87" stroke="#E6F7FE" stroke-width="14" stroke-linecap="round" opacity="0"></path><path class="hero-line-top" d="M7 7L146 87" stroke="#59B5F8" stroke-width="8" stroke-linecap="round" stroke-dashoffset="154" stroke-dasharray="154"></path><path d="M113 362.759L302.504 471.625L372.504 431.65L183 322.784L113 362.759Z" fill="#151515" fill-opacity="0.2"></path><path d="M113 304.975L302.504 413.841L372.504 373.866L183 265L113 304.975Z" fill="#3BBB96" stroke="#151515" stroke-width="2" stroke-linecap="round" stroke-linejoin="round"></path><path d="M113 304.975L302.504 413.841V441.86L113 332.994V304.975Z" fill="#151515" stroke="#151515" stroke-width="2" stroke-linecap="round" stroke-linejoin="round"></path><path d="M295 394.878L252 370.08L295 345.064L338 369.862L295 394.878Z" fill="#75DCC0" stroke="#151515" stroke-width="2" stroke-linejoin="round"></path><path d="M295 390.893L252 366.095L295 341.079L338 365.877L295 390.893Z" fill="#75DCC0" stroke="#151515" stroke-width="2" stroke-linejoin="round"></path><path d="M295 390.893L252 366.095V370.08L295 394.878V390.893Z" fill="#151515" stroke="#151515" stroke-width="2" stroke-linejoin="round"></path><path d="M187 331.117L144 306.319L187 281.303L230 306.101L187 331.117Z" fill="#75DCC0" stroke="#151515" stroke-width="2" stroke-linejoin="round"></path><path d="M187 327.132L144 302.334L187 277.318L230 302.116L187 327.132Z" fill="#75DCC0" stroke="#151515" stroke-width="2" stroke-linejoin="round"></path><path d="M187 327.131L230 302.116V306.101L187 331.117V327.131Z" fill="#75DCC0" stroke="#151515" stroke-width="2" stroke-linejoin="round"></path><path d="M187 327.132L144 302.334V306.319L187 331.117V327.132Z" fill="#151515" stroke="#151515" stroke-width="2" stroke-linejoin="round"></path><path d="M241 362.997L198 338.199L241 313.184L284 337.982L241 362.997Z" fill="#75DCC0" stroke="#151515" stroke-width="2" stroke-linejoin="round"></path><path d="M241 359.012L198 334.214L241 309.199L284 333.997L241 359.012Z" fill="#75DCC0" stroke="#151515" stroke-width="2" stroke-linejoin="round"></path><path d="M241 359.012L284 333.997V337.982L241 362.997V359.012Z" fill="#75DCC0" stroke="#151515" stroke-width="2" stroke-linejoin="round"></path><path d="M241 359.012L198 334.214V338.2L241 362.997V359.012Z" fill="#151515" stroke="#151515" stroke-width="2" stroke-linejoin="round"></path><path d="M401.906 206.649L212.402 97.7836L67.0878 180.769L256.591 289.635L401.906 206.649Z" fill="#151515" fill-opacity="0.2"></path><path d="M67 123.015L256.504 231.881V259.9L67 151.034V123.015Z" fill="#151515" stroke="#151515" stroke-width="2" stroke-linecap="round" stroke-linejoin="round"></path><path d="M401.906 148.866L212.402 40L67.0878 122.985L256.591 231.851L401.906 148.866Z" fill="#59B5F8" stroke="#151515" stroke-width="2" stroke-linecap="round" stroke-linejoin="round"></path><path d="M401.907 176.885L401.907 148.866L256.592 231.851L256.592 259.87L401.907 176.885Z" fill="#87D9FD" stroke="#151515" stroke-width="2" stroke-linecap="round" stroke-linejoin="round"></path><path d="M284.322 99.6526L214.444 59.8018L100.151 125.556L170.028 165.406L284.322 99.6526Z" fill="#87D9FD" stroke="#151515" stroke-width="2" stroke-linejoin="round"></path><path d="M284.322 95.6675L214.444 55.8167L100.151 121.57L170.028 161.421L284.322 95.6675Z" fill="#87D9FD" stroke="#151515" stroke-width="2" stroke-linejoin="round"></path><path d="M170.028 161.421L100.15 121.57V125.556L170.028 165.406V161.421Z" fill="#151515" stroke="#151515" stroke-width="2" stroke-linejoin="round"></path><path d="M170.027 161.421L284.321 95.6675V99.6526L170.027 165.406V161.421Z" fill="#87D9FD" stroke="#151515" stroke-width="2" stroke-linejoin="round"></path><path d="M257.231 129.899C259.488 128.601 263.146 128.603 265.399 129.902L324.646 164.074C326.703 165.261 326.879 167.147 325.054 168.454C322.924 169.979 318.964 170.102 316.559 168.719L257.231 134.594C254.978 133.298 254.978 131.196 257.231 129.899Z" fill="#87D9FD" stroke="#151515" stroke-width="2" stroke-linejoin="round"></path><path d="M257.231 129.899C259.488 128.601 263.146 128.603 265.399 129.902L324.646 164.074C326.703 165.261 326.879 167.147 325.054 168.454C322.924 169.979 318.964 170.102 316.559 168.719L257.231 134.594C254.978 133.298 254.978 131.196 257.231 129.899Z" fill="#87D9FD" stroke="#151515" stroke-width="2" stroke-linejoin="round"></path><path d="M257.231 134.595L316.559 168.72V172.705L257.231 138.58C256.09 137.923 255.527 137.06 255.541 136.2V132.279C255.555 133.118 256.119 133.955 257.231 134.595Z" fill="#151515" stroke="#151515" stroke-width="2" stroke-linejoin="round"></path><path d="M235.231 140.858C237.488 139.56 241.146 139.562 243.399 140.861L302.646 175.033C304.703 176.22 304.879 178.106 303.054 179.413C300.924 180.938 296.964 181.061 294.559 179.678L235.231 145.553C232.978 144.256 232.978 142.154 235.231 140.858Z" fill="#87D9FD" stroke="#151515" stroke-width="2" stroke-linejoin="round"></path><path d="M235.231 140.858C237.488 139.56 241.146 139.562 243.399 140.861L302.646 175.033C304.703 176.22 304.879 178.106 303.054 179.413C300.924 180.938 296.964 181.061 294.559 179.678L235.231 145.553C232.978 144.256 232.978 142.154 235.231 140.858Z" fill="#87D9FD" stroke="#151515" stroke-width="2" stroke-linejoin="round"></path><path d="M235.231 145.554L294.559 179.679V183.664L235.231 149.539C234.09 148.882 233.527 148.019 233.541 147.159V143.238C233.555 144.077 234.119 144.913 235.231 145.554Z" fill="#151515" stroke="#151515" stroke-width="2" stroke-linejoin="round"></path></svg>